<?xml version="1.0" encoding="UTF-8"?>
<svg width="962px" height="471px" viewBox="0 0 962 471" version="1.1" xmlns="http://www.w3.org/2000/svg" xmlns:xlink="http://www.w3.org/1999/xlink">
    <title>engine-illustration-banner</title>
    <defs>
        <rect id="path-1" x="0" y="0" width="960" height="469" rx="10"></rect>
        <filter x="-12.1%" y="-30.0%" width="124.3%" height="149.7%" filterUnits="objectBoundingBox" id="filter-2">
            <feMorphology radius="19.5" operator="erode" in="SourceAlpha" result="shadowSpreadOuter1"></feMorphology>
            <feOffset dx="0" dy="-24" in="shadowSpreadOuter1" result="shadowOffsetOuter1"></feOffset>
            <feMorphology radius="19" operator="dilate" in="SourceAlpha" result="shadowInner"></feMorphology>
            <feOffset dx="0" dy="-24" in="shadowInner" result="shadowInner"></feOffset>
            <feComposite in="shadowOffsetOuter1" in2="shadowInner" operator="out" result="shadowOffsetOuter1"></feComposite>
            <feGaussianBlur stdDeviation="35" in="shadowOffsetOuter1" result="shadowBlurOuter1"></feGaussianBlur>
            <feColorMatrix values="0 0 0 0 0   0 0 0 0 0   0 0 0 0 0  0 0 0 0.5 0" type="matrix" in="shadowBlurOuter1"></feColorMatrix>
        </filter>
    </defs>
    <g id="Page-1" stroke="none" stroke-width="1" fill="none" fill-rule="evenodd">
        <g id="-" transform="translate(-479.000000, -2436.000000)">
            <g id="Group-10" transform="translate(480.000000, 2287.000000)">
                <g id="engine-illustration-banner" transform="translate(0.000000, 150.000000)">
                    <g id="Mask">
                        <use fill="black" fill-opacity="1" filter="url(#filter-2)" xlink:href="#path-1"></use>
                        <use stroke="#131727" stroke-width="1" xlink:href="#path-1"></use>
                    </g>
                    <path d="M362.330018,239.061947 L362.330018,235.169274 L356.22,235.169274 L356.22,232.631646 L361.788,232.631646 L361.788,229.157805 L356.22,229.157805 L356.22,226.743363 L362.108283,226.743363 L362.108283,222.85069 L351.883858,222.85069 L351.883858,239.061947 L362.330018,239.061947 Z M369.105239,239.061947 L369.105239,230.980956 L369.031327,228.886796 L370.31246,231.005593 L375.683363,239.061947 L380.462973,239.061947 L380.462973,222.85069 L376.496389,222.85069 L376.496389,230.85777 L376.570301,232.951929 L375.289168,230.833133 L370.016814,222.85069 L365.138655,222.85069 L365.138655,239.061947 L369.105239,239.061947 Z M391.648248,239.406867 C394.038053,239.406867 396.15685,239.012673 398.103186,238.24892 L398.103186,229.576637 L391.130867,229.576637 L391.130867,233.050478 L393.89023,233.050478 L393.89023,235.243186 C393.175752,235.489558 392.461274,235.563469 391.598973,235.563469 C389.135257,235.563469 387.435292,233.740319 387.435292,230.882407 C387.435292,228.147681 389.307717,226.42308 391.993168,226.42308 C393.865593,226.42308 395.54092,226.768 397.142336,227.457841 L397.142336,223.417345 C395.491646,222.826053 393.569947,222.50577 391.746796,222.50577 C386.49908,222.50577 382.975965,225.733239 382.975965,230.956319 C382.975965,236.08085 386.375894,239.406867 391.648248,239.406867 Z M405.075504,239.061947 L405.075504,222.85069 L400.739363,222.85069 L400.739363,239.061947 L405.075504,239.061947 Z M412.097097,239.061947 L412.097097,230.980956 L412.023186,228.886796 L413.304319,231.005593 L418.675221,239.061947 L423.454832,239.061947 L423.454832,222.85069 L419.488248,222.85069 L419.488248,230.85777 L419.562159,232.951929 L418.281027,230.833133 L413.008673,222.85069 L408.130513,222.85069 L408.130513,239.061947 L412.097097,239.061947 Z M436.956,239.061947 L436.956,235.169274 L430.845982,235.169274 L430.845982,232.631646 L436.413982,232.631646 L436.413982,229.157805 L430.845982,229.157805 L430.845982,226.743363 L436.734265,226.743363 L436.734265,222.85069 L426.509841,222.85069 L426.509841,239.061947 L436.956,239.061947 Z M449.028212,239.061947 L449.028212,222.85069 L444.692071,222.85069 L444.692071,239.061947 L449.028212,239.061947 Z M462.554018,239.061947 L462.554018,235.12 L456.419363,235.12 L456.419363,222.85069 L452.083221,222.85069 L452.083221,239.061947 L462.554018,239.061947 Z M475.143611,239.061947 L475.143611,235.12 L469.008956,235.12 L469.008956,222.85069 L464.672814,222.85069 L464.672814,239.061947 L475.143611,239.061947 Z M484.333274,239.357593 C488.570867,239.357593 491.404142,236.696779 491.404142,232.557735 L491.404142,222.85069 L487.215823,222.85069 L487.215823,232.360637 C487.215823,234.060602 486.156425,235.218549 484.407186,235.218549 C482.682584,235.218549 481.598549,234.060602 481.598549,232.360637 L481.598549,222.85069 L477.114584,222.85069 L477.114584,232.557735 C477.114584,236.696779 479.972496,239.357593 484.333274,239.357593 Z M499.041664,239.38223 C502.786513,239.38223 505.127044,237.386619 505.127044,233.962053 C505.127044,231.596885 503.747363,229.823009 500.840177,229.034619 L500.174973,228.862159 C499.017027,228.517239 498.450372,228.049133 498.450372,227.383929 C498.450372,226.620177 499.066301,226.275257 500.125699,226.275257 C501.554655,226.275257 503.057522,226.669451 504.412566,227.408566 L504.412566,223.417345 C502.909699,222.801416 501.283646,222.530407 499.756142,222.530407 C496.134478,222.530407 493.843221,224.550655 493.843221,227.630301 C493.843221,230.069381 495.222903,231.818619 498.03154,232.582372 L498.696743,232.754832 C499.953239,233.124389 500.544531,233.64177 500.544531,234.356248 C500.544531,235.144637 499.879327,235.588106 498.795292,235.588106 C497.193876,235.588106 495.543186,235.169274 494.064956,234.331611 L494.064956,238.347469 C495.691009,239.03731 497.415611,239.38223 499.041664,239.38223 Z M515.400743,239.061947 L515.400743,226.792637 L519.810796,226.792637 L519.810796,222.85069 L506.654549,222.85069 L506.654549,226.792637 L511.064602,226.792637 L511.064602,239.061947 L515.400743,239.061947 Z M526.167186,239.061947 L526.167186,232.804106 L526.980212,232.804106 C527.86715,232.804106 528.433805,233.321487 528.852637,234.479434 L530.47869,239.061947 L535.159752,239.061947 L533.26269,233.98669 C532.696035,232.533097 531.759823,231.670796 530.256956,231.325876 C532.375752,230.68531 533.459788,229.231717 533.459788,227.211469 C533.459788,224.526018 531.26708,222.85069 528.162796,222.85069 L521.831044,222.85069 L521.831044,239.061947 L526.167186,239.061947 Z M527.34977,229.72446 L526.167186,229.72446 L526.167186,226.225982 L527.34977,226.225982 C528.409168,226.225982 529.123646,226.915823 529.123646,227.950584 C529.123646,229.009982 528.409168,229.72446 527.34977,229.72446 Z M540.13646,239.061947 L541.245133,236.154761 L547.231965,236.154761 L548.316,239.061947 L553.021699,239.061947 L546.566761,222.85069 L542.40308,222.85069 L535.923504,239.061947 L540.13646,239.061947 Z M546.024743,232.951929 L542.427717,232.951929 L543.191469,230.882407 L544.22623,227.827398 L545.260991,230.882407 L546.024743,232.951929 Z M562.605558,239.061947 L562.605558,226.792637 L567.015611,226.792637 L567.015611,222.85069 L553.859363,222.85069 L553.859363,226.792637 L558.269416,226.792637 L558.269416,239.061947 L562.605558,239.061947 Z M573.372,239.061947 L573.372,222.85069 L569.035858,222.85069 L569.035858,239.061947 L573.372,239.061947 Z M584.581912,239.480779 C589.90354,239.480779 593.278832,236.179398 593.278832,230.956319 C593.278832,225.708602 589.804991,222.431858 584.581912,222.431858 C579.358832,222.431858 575.884991,225.80715 575.884991,230.956319 C575.884991,236.08085 579.260283,239.480779 584.581912,239.480779 Z M584.581912,235.588106 C581.995009,235.588106 580.344319,233.789593 580.344319,230.956319 C580.344319,228.098407 581.995009,226.299894 584.581912,226.299894 C587.168814,226.299894 588.819504,228.098407 588.819504,230.956319 C588.819504,233.789593 587.168814,235.588106 584.581912,235.588106 Z M599.758407,239.061947 L599.758407,230.980956 L599.684496,228.886796 L600.965628,231.005593 L606.336531,239.061947 L611.116142,239.061947 L611.116142,222.85069 L607.149558,222.85069 L607.149558,230.85777 L607.223469,232.951929 L605.942336,230.833133 L600.669982,222.85069 L595.791823,222.85069 L595.791823,239.061947 L599.758407,239.061947 Z" id="ENGINEILLUSTRATION" fill="#5DD9A5" fill-rule="nonzero"></path>
                </g>
            </g>
        </g>
    </g>
</svg>