<?xml version="1.0" encoding="UTF-8"?>
<svg width="129px" height="128px" viewBox="0 0 129 128" version="1.1" xmlns="http://www.w3.org/2000/svg" xmlns:xlink="http://www.w3.org/1999/xlink">
    <title>Group</title>
    <defs>
        <polygon id="path-1" points="0 0 128 0 128 128 0 128"></polygon>
        <path d="M60,0 C93.13708,0 120,26.86292 120,60 C120,93.13708 93.13708,120 60,120 C26.86292,120 0,93.13708 0,60 C0,26.86292 26.86292,0 60,0 Z" id="path-3"></path>
        <path d="M60,0 C93.13708,0 120,26.86292 120,60 C120,93.13708 93.13708,120 60,120 C26.86292,120 0,93.13708 0,60" id="path-5"></path>
        <path d="M60,0 C93.13708,0 120,26.86292 120,60 C120,93.13708 93.13708,120 60,120 C26.86292,120 0,93.13708 0,60" id="path-7"></path>
        <path d="M10.07797,0.60429 C15.31124,0.60429 19.55166,4.8466 19.55166,10.07797 C19.55166,15.30934 15.31124,19.55166 10.07797,19.55166 C4.84471,19.55166 0.60429,15.30934 0.60429,10.07797 C0.60429,4.8466 4.84471,0.60429 10.07797,0.60429 Z" id="path-9"></path>
        <path d="M3.07797,0.64133 C4.42544,0.64133 5.51462,1.73294 5.51462,3.07797 C5.51462,4.423 4.42544,5.51462 3.07797,5.51462 C1.73051,5.51462 0.64133,4.423 0.64133,3.07797 C0.64133,1.73294 1.73051,0.64133 3.07797,0.64133 Z" id="path-11"></path>
        <path d="M10.24194,0.6071 C15.4744,0.6984 19.64014,5.0141 19.54884,10.24466 C19.45754,15.47523 15.14373,19.6429 9.91126,19.55156 C4.6788,19.46023 0.51306,15.14455 0.60436,9.91398 C0.69566,4.6834 5.00947,0.5157 10.24194,0.6071 Z" id="path-13"></path>
        <path d="M3.11913,0.643 C4.46639,0.6666 5.53635,1.77702 5.51288,3.12185 C5.4894,4.46667 4.38134,5.53911 3.03407,5.5156 C1.68681,5.49208 0.61685,4.38162 0.64032,3.0368 C0.6638,1.69197 1.77186,0.6195 3.11913,0.643 Z" id="path-15"></path>
        <path d="M10.078,0.60429 C15.3112,0.60429 19.5517,4.8466 19.5517,10.07797 C19.5517,15.30934 15.3112,19.55166 10.078,19.55166 C4.8447,19.55166 0.6043,15.30934 0.6043,10.07797 C0.6043,4.8466 4.8447,0.60429 10.078,0.60429 Z" id="path-17"></path>
        <path d="M3.078,0.64133 C4.4254,0.64133 5.5146,1.73294 5.5146,3.07797 C5.5146,4.423 4.4254,5.51462 3.078,5.51462 C1.7305,5.51462 0.6413,4.423 0.6413,3.07797 C0.6413,1.73294 1.7305,0.64133 3.078,0.64133 Z" id="path-19"></path>
    </defs>
    <g id="Page-1" stroke="none" stroke-width="1" fill="none" fill-rule="evenodd">
        <g id="Group-43">
            <g id="Group">
                <g id="Group-3">
                    <mask id="mask-2" fill="white">
                        <use xlink:href="#path-1"></use>
                    </mask>
                    <g id="Clip-2"></g>
                    <polygon id="Fill-1" fill-opacity="0" fill="#FFFFFF" mask="url(#mask-2)" points="-5 -5 133 -5 133 133 -5 133"></polygon>
                </g>
                <g id="Group-13" transform="translate(4.000000, 4.000000)">
                    <g id="Group-6">
                        <mask id="mask-4" fill="white">
                            <use xlink:href="#path-3"></use>
                        </mask>
                        <g id="Clip-5"></g>
                        <path d="M8.7,12.2 C47.9122,12.2 79.7,43.98778 79.7,83.2 C79.7,122.4122 47.9122,154.2 8.7,154.2 C-30.51222,154.2 -62.3,122.4122 -62.3,83.2 C-62.3,43.98778 -30.51222,12.2 8.7,12.2 Z" id="Stroke-4" stroke="#131727" stroke-width="1.869197" stroke-linecap="round" stroke-linejoin="round" mask="url(#mask-4)"></path>
                    </g>
                    <g id="Group-9">
                        <mask id="mask-6" fill="white">
                            <use xlink:href="#path-5"></use>
                        </mask>
                        <g id="Clip-8"></g>
                        <path d="M175.655986,143.513576 C193.552468,195.22633 172.902577,254.013688 123.750041,282.391918 C68.0289274,314.562518 -3.2213182,295.471073 -35.3919182,239.749959 C-67.5625032,184.028872 -48.4710726,112.7786 7.2500409,80.608 C46.6312816,57.87123 93.7694128,60.7400884 129.385986,84.0489232 C144.16383,93.7201037 156.95818,106.910104 166.392,123.249959" id="Stroke-7" stroke="#131727" stroke-width="1.869197" stroke-linecap="round" stroke-linejoin="round" stroke-dasharray="0,4" mask="url(#mask-6)"></path>
                    </g>
                    <g id="Group-12">
                        <mask id="mask-8" fill="white">
                            <use xlink:href="#path-7"></use>
                        </mask>
                        <g id="Clip-11"></g>
                        <path d="M245.846557,-106.845212 C263.205371,-56.6860681 243.17588,0.3351754 195.50003,27.8608404 C141.452943,59.0649404 72.3432596,40.5470566 41.1391596,-13.5000298 C9.9350696,-67.5470988 28.4529434,-136.6568 82.5000298,-167.8609 C120.698141,-189.91459 166.42011,-187.131917 200.966664,-164.523351 C215.300526,-155.142727 227.7105,-142.348987 236.8609,-126.50003" id="Stroke-10" stroke="#131727" stroke-width="1.869197" stroke-linecap="round" stroke-linejoin="round" stroke-dasharray="0,4" mask="url(#mask-8)"></path>
                    </g>
                </g>
                <g id="Group-16" transform="translate(35.000000, 60.000000)">
                    <mask id="mask-10" fill="white">
                        <use xlink:href="#path-9"></use>
                    </mask>
                    <g id="Clip-15"></g>
                    <polygon id="Fill-14" fill="#FFFFFF" mask="url(#mask-10)" points="-4.39571 -4.39571 24.55166 -4.39571 24.55166 24.55166 -4.39571 24.55166"></polygon>
                </g>
                <path d="M54.55166,70.077974 C54.55166,75.30934 50.31124,79.55166 45.077974,79.55166 C39.844711,79.55166 35.60429,75.30934 35.60429,70.077974 C35.60429,64.846606 39.844711,60.60429 45.077974,60.60429 C50.31124,60.60429 54.55166,64.846606 54.55166,70.077974 Z" id="Stroke-17" stroke="#5DD9A5" stroke-width="1.869197" stroke-linecap="round" stroke-linejoin="round"></path>
                <g id="Group-21" transform="translate(42.000000, 67.000000)">
                    <mask id="mask-12" fill="white">
                        <use xlink:href="#path-11"></use>
                    </mask>
                    <g id="Clip-20"></g>
                    <polygon id="Fill-19" fill="#FFFFFF" mask="url(#mask-12)" points="-4.35867 -4.35867 10.51462 -4.35867 10.51462 10.51462 -4.35867 10.51462"></polygon>
                </g>
                <path d="M47.514624,70.077977 C47.514624,71.423006 46.425443,72.514624 45.077977,72.514624 C43.730511,72.514624 42.64133,71.423006 42.64133,70.077977 C42.64133,68.732948 43.730511,67.64133 45.077977,67.64133 C46.425443,67.64133 47.514624,68.732948 47.514624,70.077977 Z" id="Stroke-22" stroke="#5DD9A5" stroke-width="1.869197" stroke-linecap="round" stroke-linejoin="round"></path>
                <g id="Group-26" transform="translate(70.000000, 20.000000)">
                    <mask id="mask-14" fill="white">
                        <use xlink:href="#path-13"></use>
                    </mask>
                    <g id="Clip-25"></g>
                    <polygon id="Fill-24" fill="#FFFFFF" mask="url(#mask-14)" points="-4.14228 -4.6448 24.80068 -4.1396 24.29548 24.8034 -4.64748 24.2982"></polygon>
                </g>
                <path d="M89.5488457,30.2446184 C89.4575458,35.4751877 85.1437329,39.642856 79.9112639,39.5515229 C74.6787979,39.4601899 70.5130614,35.1445104 70.6043614,29.9139412 C70.6956614,24.6833699 75.0094752,20.5157056 80.2419412,20.6070386 C85.4744101,20.6983717 89.6401457,25.0140472 89.5488457,30.2446184 Z" id="Stroke-27" stroke="#5DD9A5" stroke-width="1.869197" stroke-linecap="round" stroke-linejoin="round"></path>
                <g id="Group-31" transform="translate(77.000000, 27.000000)">
                    <mask id="mask-16" fill="white">
                        <use xlink:href="#path-15"></use>
                    </mask>
                    <g id="Clip-30"></g>
                    <polygon id="Fill-29" fill="#FFFFFF" mask="url(#mask-16)" points="-4.22913 -4.486 10.6419 -4.2264 10.38233 10.64462 -4.4887 10.38505"></polygon>
                </g>
                <g id="Group-38" transform="translate(1.000000, 3.000000)" stroke-linecap="round" stroke-linejoin="round" stroke-width="1.869197">
                    <path d="M81.5128764,27.1218266 C81.4894024,28.4666508 80.381336,29.5390937 79.0340752,29.5155772 C77.6868144,29.4920606 76.6168506,28.3816001 76.6403246,27.0367759 C76.6637986,25.6919517 77.7718651,24.6195088 79.1191259,24.6430254 C80.4663867,24.6665419 81.5363504,25.7770025 81.5128764,27.1218266 Z" id="Stroke-32" stroke="#5DD9A5"></path>
                    <path d="M30.26159,7.8765 C12.18339,18.21304 0,37.68373 0,60.00002 C0,93.1371 26.86292,120 60,120 C71.23586,120 81.75037,116.9116 90.74094,111.5374" id="Stroke-34" stroke="#131727"></path>
                    <path d="M103.94224,100.8547 C113.90585,90.14298 120,75.78317 120,60 C120,26.86292 93.13708,0 60,0 C54.809391,0 49.772728,0.6591144 44.96914,1.898213" id="Stroke-36" stroke="#131727" stroke-dasharray="0,4"></path>
                </g>
                <g id="Group-41" transform="translate(108.000000, 70.000000)">
                    <mask id="mask-18" fill="white">
                        <use xlink:href="#path-17"></use>
                    </mask>
                    <g id="Clip-40"></g>
                    <polygon id="Fill-39" fill="#FFFFFF" mask="url(#mask-18)" points="-4.3957 -4.39571 24.5517 -4.39571 24.5517 24.55166 -4.3957 24.55166"></polygon>
                </g>
                <path d="M127.55167,80.077974 C127.55167,85.30934 123.31125,89.55166 118.077984,89.55166 C112.844721,89.55166 108.6043,85.30934 108.6043,80.077974 C108.6043,74.846606 112.844721,70.60429 118.077984,70.60429 C123.31125,70.60429 127.55167,74.846606 127.55167,80.077974 Z" id="Stroke-42" stroke="#5DD9A5" stroke-width="1.869197" stroke-linecap="round" stroke-linejoin="round"></path>
                <g id="Group-46" transform="translate(115.000000, 77.000000)">
                    <mask id="mask-20" fill="white">
                        <use xlink:href="#path-19"></use>
                    </mask>
                    <g id="Clip-45"></g>
                    <polygon id="Fill-44" fill="#FFFFFF" mask="url(#mask-20)" points="-4.3587 -4.35867 10.5146 -4.35867 10.5146 10.51462 -4.3587 10.51462"></polygon>
                </g>
                <path d="M120.514594,80.077977 C120.514594,81.423006 119.425413,82.514624 118.077947,82.514624 C116.730481,82.514624 115.6413,81.423006 115.6413,80.077977 C115.6413,78.732948 116.730481,77.64133 118.077947,77.64133 C119.425413,77.64133 120.514594,78.732948 120.514594,80.077977 Z" id="Stroke-47" stroke="#5DD9A5" stroke-width="1.869197" stroke-linecap="round" stroke-linejoin="round"></path>
            </g>
        </g>
    </g>
</svg>