<?xml version="1.0" encoding="UTF-8"?>
<svg width="127px" height="132px" viewBox="0 0 127 132" version="1.1" xmlns="http://www.w3.org/2000/svg" xmlns:xlink="http://www.w3.org/1999/xlink">
    <title>benefit-01-icon-color4</title>
    <g id="Page-1" stroke="none" stroke-width="1" fill="none" fill-rule="evenodd">
        <g id="Citrusbugminds_core-technology" transform="translate(-1517.000000, -1629.000000)">
            <g id="Group" transform="translate(0.000000, 1510.000000)">
                <g id="Group-34" transform="translate(1410.000000, 120.000000)">
                    <g id="benefit-01-icon-color4" transform="translate(107.000000, 0.000000)">
                        <rect id="Rectangle" x="0" y="2" width="127" height="127"></rect>
                        <g id="Group-13" transform="translate(1.000000, 0.000000)" stroke-linecap="round" stroke-linejoin="round" stroke-width="1.86919691">
                            <polyline id="Stroke-1" stroke="#131727" points="60.6282407 54.7451389 48.612037 81.018287 34.7231481 81.018287 25.4638889 104.166435 11.575 90.2775463 0.000925925926 115.740509"></polyline>
                            <polyline id="Stroke-3" stroke="#131727" points="125 18.5185185 111.111111 46.2962963 97.2222222 32.4074074 83.3333333 64.8148148 70.8611111 53.8101852"></polyline>
                            <path d="M67.1296296,43.9814815 C67.1296296,45.2592593 66.0949074,46.2962963 64.8148148,46.2962963 C63.5347222,46.2962963 62.5,45.2592593 62.5,43.9814815 C62.5,42.7037037 63.5347222,41.6666667 64.8148148,41.6666667 C66.0949074,41.6666667 67.1296296,42.7037037 67.1296296,43.9814815 Z" id="Stroke-5" stroke="#5DD9A5"></path>
                            <path d="M76.3888889,43.9814815 C76.3888889,50.3726852 71.2083333,55.5555556 64.8148148,55.5555556 C58.4212963,55.5555556 53.2407407,50.3726852 53.2407407,43.9814815 C53.2407407,37.5902778 58.4212963,32.4074074 64.8148148,32.4074074 C71.2083333,32.4074074 76.3888889,37.5902778 76.3888889,43.9814815 Z" id="Stroke-7" stroke="#5DD9A5"></path>
                            <line x1="64.8148148" y1="129.62963" x2="64.8148148" y2="64.8148148" id="Stroke-9" stroke="#131727" stroke-dasharray="0,4.927203271241315"></line>
                            <line x1="64.8148148" y1="23.1481481" x2="64.8148148" y2="0" id="Stroke-11" stroke="#131727" stroke-dasharray="0,4.927203271241315"></line>
                        </g>
                    </g>
                </g>
            </g>
        </g>
    </g>
</svg>