<?xml version="1.0" encoding="UTF-8"?>
<svg width="129px" height="123px" viewBox="0 0 129 123" version="1.1" xmlns="http://www.w3.org/2000/svg" xmlns:xlink="http://www.w3.org/1999/xlink">
    <title>Group</title>
    <defs>
        <path d="M60.395712,0.3957 C93.5328,0.3957 120.3957,27.25863 120.3957,60.39571 C120.3957,93.5328 93.5328,120.395712 60.395712,120.395712 C27.25863,120.395712 0.395712,93.5328 0.395712,60.39571 C0.395712,27.25863 27.25863,0.3957 60.395712,0.3957 Z" id="path-1"></path>
        <path d="M60.395712,0.3957 C93.5328,0.3957 120.3957,27.25863 120.3957,60.39571 C120.3957,93.5328 93.5328,120.395712 60.395712,120.395712 C27.25863,120.395712 0.395712,93.5328 0.395712,60.39571" id="path-3"></path>
        <path d="M60.395712,0.3957 C93.5328,0.3957 120.3957,27.25863 120.3957,60.39571 C120.3957,93.5328 93.5328,120.395712 60.395712,120.395712 C27.25863,120.395712 0.395712,93.5328 0.395712,60.39571" id="path-5"></path>
        <path d="M9.47368,0 C14.70695,0 18.94737,4.24232 18.94737,9.47368 C18.94737,14.70505 14.70695,18.94737 9.47368,18.94737 C4.24042,18.94737 0,14.70505 0,9.47368 C0,4.24232 4.24042,0 9.47368,0 Z" id="path-7"></path>
        <path d="M2.47368,0.03704 C3.82115,0.03704 4.91033,1.12865 4.91033,2.47368 C4.91033,3.81871 3.82115,4.91033 2.47368,4.91033 C1.12622,4.91033 0.03704,3.81871 0.03704,2.47368 C0.03704,1.12865 1.12622,0.03704 2.47368,0.03704 Z" id="path-9"></path>
        <path d="M9.63765,0.0028 C14.87012,0.0941 19.03585,4.4098 18.94455,9.64037 C18.85325,14.87094 14.53944,19.03861 9.30697,18.94727 C4.07451,18.85594 -0.09123,14.54027 7e-05,9.30969 C0.09137,4.0791 4.40518,-0.0885 9.63765,0.0028 Z" id="path-11"></path>
        <path d="M2.51484,0.03876 C3.8621,0.06227 4.93206,1.17273 4.90859,2.51756 C4.88511,3.86238 3.77705,4.93483 2.42979,4.91131 C1.08253,4.88779 0.01256,3.77733 0.03604,2.43251 C0.05951,1.08768 1.16758,0.01524 2.51484,0.03876 Z" id="path-13"></path>
        <path d="M9.4737,0 C14.7069,0 18.9474,4.24232 18.9474,9.47368 C18.9474,14.70505 14.7069,18.94737 9.4737,18.94737 C4.2404,18.94737 0,14.70505 0,9.47368 C0,4.24232 4.2404,0 9.4737,0 Z" id="path-15"></path>
        <path d="M2.4737,0.03704 C3.8212,0.03704 4.9103,1.12865 4.9103,2.47368 C4.9103,3.81871 3.8212,4.91033 2.4737,4.91033 C1.1262,4.91033 0.037,3.81871 0.037,2.47368 C0.037,1.12865 1.1262,0.03704 2.4737,0.03704 Z" id="path-17"></path>
    </defs>
    <g id="Page-1" stroke="none" stroke-width="1" fill="none" fill-rule="evenodd">
        <g id="Group-29" transform="translate(0.000000, -2.000000)">
            <g id="Group" transform="translate(1.000000, 3.000000)">
                <g id="Group-10">
                    <g id="Group-3">
                        <mask id="mask-2" fill="white">
                            <use xlink:href="#path-1"></use>
                        </mask>
                        <g id="Clip-2"></g>
                        <path d="M9.09571,12.5957 C48.30791,12.5957 80.09571,44.38348 80.09571,83.5957 C80.09571,122.8079 48.30791,154.5957 9.09571,154.5957 C-30.11651,154.5957 -61.90429,122.8079 -61.90429,83.5957 C-61.90429,44.38348 -30.11651,12.5957 9.09571,12.5957 Z" id="Stroke-1" stroke="#FFFFFF" stroke-width="1.869197" stroke-linecap="round" stroke-linejoin="round" mask="url(#mask-2)"></path>
                    </g>
                    <g id="Group-6">
                        <mask id="mask-4" fill="white">
                            <use xlink:href="#path-3"></use>
                        </mask>
                        <g id="Clip-5"></g>
                        <path d="M176.051686,143.909376 C193.948168,195.62213 173.298277,254.409488 124.145741,282.787718 C68.4246274,314.958318 -2.8256182,295.866873 -34.9962182,240.145759 C-67.1668032,184.424672 -48.0753726,113.1744 7.6457409,81.0038 C47.0269816,58.26703 94.1651128,61.1358884 129.781686,84.4447232 C144.55953,94.1159037 157.35388,107.305904 166.7877,123.645759" id="Stroke-4" stroke="#FFFFFF" stroke-width="1.869197" stroke-linecap="round" stroke-linejoin="round" stroke-dasharray="0,4" mask="url(#mask-4)"></path>
                    </g>
                    <g id="Group-9">
                        <mask id="mask-6" fill="white">
                            <use xlink:href="#path-5"></use>
                        </mask>
                        <g id="Clip-8"></g>
                        <path d="M246.242257,-106.449512 C263.601071,-56.2903681 243.57158,0.7308754 195.89573,28.2565404 C141.848643,59.4606404 72.7389596,40.9427566 41.5348596,-13.1043298 C10.3307696,-67.1513988 28.8486434,-136.2611 82.8957298,-167.4652 C121.093841,-189.51889 166.81581,-186.736217 201.362364,-164.127651 C215.696226,-154.747027 228.1062,-141.953287 237.2566,-126.10433" id="Stroke-7" stroke="#131727" stroke-width="1.869197" stroke-linecap="round" stroke-linejoin="round" stroke-dasharray="0,4" mask="url(#mask-6)"></path>
                    </g>
                </g>
                <g id="Group-13" transform="translate(35.000000, 58.000000)">
                    <mask id="mask-8" fill="white">
                        <use xlink:href="#path-7"></use>
                    </mask>
                    <g id="Clip-12"></g>
                    <polygon id="Fill-11" fill="#131727" mask="url(#mask-8)" points="-5 -5 23.94737 -5 23.94737 23.94737 -5 23.94737"></polygon>
                </g>
                <path d="M53.94737,67.473684 C53.94737,72.70505 49.70695,76.94737 44.473684,76.94737 C39.240421,76.94737 35,72.70505 35,67.473684 C35,62.242316 39.240421,58 44.473684,58 C49.70695,58 53.94737,62.242316 53.94737,67.473684 Z" id="Stroke-14" stroke="#5DD9A5" stroke-width="1.869197" stroke-linecap="round" stroke-linejoin="round"></path>
                <g id="Group-18" transform="translate(42.000000, 65.000000)">
                    <mask id="mask-10" fill="white">
                        <use xlink:href="#path-9"></use>
                    </mask>
                    <g id="Clip-17"></g>
                    <polygon id="Fill-16" fill="#131727" mask="url(#mask-10)" points="-4.96296 -4.96296 9.91033 -4.96296 9.91033 9.91033 -4.96296 9.91033"></polygon>
                </g>
                <path d="M46.910334,67.473687 C46.910334,68.818716 45.821153,69.910334 44.473687,69.910334 C43.126221,69.910334 42.03704,68.818716 42.03704,67.473687 C42.03704,66.128658 43.126221,65.03704 44.473687,65.03704 C45.821153,65.03704 46.910334,66.128658 46.910334,67.473687 Z" id="Stroke-19" stroke="#5DD9A5" stroke-width="1.869197" stroke-linecap="round" stroke-linejoin="round"></path>
                <g id="Group-23" transform="translate(70.000000, 18.000000)">
                    <mask id="mask-12" fill="white">
                        <use xlink:href="#path-11"></use>
                    </mask>
                    <g id="Clip-22"></g>
                    <polygon id="Fill-21" fill="#131727" mask="url(#mask-12)" points="-4.74657 -5.249 24.19639 -4.7438 23.69119 24.19911 -5.25177 23.69391"></polygon>
                </g>
                <path d="M88.9445557,27.6404184 C88.8532558,32.8709877 84.5394429,37.038656 79.3069739,36.9473229 C74.0745079,36.8559899 69.9087714,32.5403104 70.0000714,27.3097412 C70.0913714,22.0791699 74.4051852,17.9115056 79.6376512,18.0028386 C84.8701201,18.0941717 89.0358557,22.4098472 88.9445557,27.6404184 Z" id="Stroke-24" stroke="#5DD9A5" stroke-width="1.869197" stroke-linecap="round" stroke-linejoin="round"></path>
                <g id="Group-28" transform="translate(77.000000, 25.000000)">
                    <mask id="mask-14" fill="white">
                        <use xlink:href="#path-13"></use>
                    </mask>
                    <g id="Clip-27"></g>
                    <polygon id="Fill-26" fill="#131727" mask="url(#mask-14)" points="-4.83342 -5.0903 10.03761 -4.8307 9.77804 10.04034 -5.09299 9.78076"></polygon>
                </g>
                <g id="Group-35" stroke-linecap="round" stroke-linejoin="round" stroke-width="1.869197">
                    <path d="M81.9085864,27.5175566 C81.8851124,28.8623808 80.777046,29.9348237 79.4297852,29.9113072 C78.0825244,29.8877906 77.0125606,28.7773301 77.0360346,27.4325059 C77.0595086,26.0876817 78.1675751,25.0152388 79.5148359,25.0387554 C80.8620967,25.0622719 81.9320604,26.1727325 81.9085864,27.5175566 Z" id="Stroke-29" stroke="#5DD9A5"></path>
                    <path d="M30.657302,8.2722 C12.579102,18.60874 0.395712,38.07943 0.395712,60.39572 C0.395712,93.5328 27.258632,120.3957 60.395712,120.3957 C71.631572,120.3957 82.146082,117.3073 91.136652,111.9331" id="Stroke-31" stroke="#FFFFFF"></path>
                    <path d="M104.33795,101.2504 C114.30156,90.53868 120.39571,76.17887 120.39571,60.3957 C120.39571,27.25862 93.53279,0.3957 60.39571,0.3957 C55.205101,0.3957 50.168438,1.0548144 45.36485,2.293913" id="Stroke-33" stroke="#FFFFFF" stroke-dasharray="0,4"></path>
                </g>
                <g id="Group-38" transform="translate(108.000000, 68.000000)">
                    <mask id="mask-16" fill="white">
                        <use xlink:href="#path-15"></use>
                    </mask>
                    <g id="Clip-37"></g>
                    <polygon id="Fill-36" fill="#131727" mask="url(#mask-16)" points="-5 -5 23.9474 -5 23.9474 23.94737 -5 23.94737"></polygon>
                </g>
                <path d="M126.94737,77.473684 C126.94737,82.70505 122.70695,86.94737 117.473684,86.94737 C112.240421,86.94737 108,82.70505 108,77.473684 C108,72.242316 112.240421,68 117.473684,68 C122.70695,68 126.94737,72.242316 126.94737,77.473684 Z" id="Stroke-39" stroke="#5DD9A5" stroke-width="1.869197" stroke-linecap="round" stroke-linejoin="round"></path>
                <g id="Group-43" transform="translate(115.000000, 75.000000)">
                    <mask id="mask-18" fill="white">
                        <use xlink:href="#path-17"></use>
                    </mask>
                    <g id="Clip-42"></g>
                    <polygon id="Fill-41" fill="#131727" mask="url(#mask-18)" points="-4.963 -4.96296 9.9103 -4.96296 9.9103 9.91033 -4.963 9.91033"></polygon>
                </g>
                <path d="M119.910294,77.473687 C119.910294,78.818716 118.821113,79.910334 117.473647,79.910334 C116.126181,79.910334 115.037,78.818716 115.037,77.473687 C115.037,76.128658 116.126181,75.03704 117.473647,75.03704 C118.821113,75.03704 119.910294,76.128658 119.910294,77.473687 Z" id="Stroke-44" stroke="#5DD9A5" stroke-width="1.869197" stroke-linecap="round" stroke-linejoin="round"></path>
            </g>
        </g>
    </g>
</svg>