<?xml version="1.0" encoding="UTF-8"?>
<svg width="128px" height="127px" viewBox="0 0 128 127" version="1.1" xmlns="http://www.w3.org/2000/svg" xmlns:xlink="http://www.w3.org/1999/xlink">
    <title>benefit-03-icon</title>
    <g id="Page-1" stroke="none" stroke-width="1" fill="none" fill-rule="evenodd">
        <g id="Citrusbugminds_Use_Case" transform="translate(-1099.000000, -4770.000000)">
            <g id="Group-35" transform="translate(1001.000000, 4770.000000)">
                <g id="benefit-03-icon" transform="translate(98.000000, 0.000000)">
                    <rect id="Rectangle" x="0" y="0" width="127" height="127"></rect>
                    <g id="Group-28" transform="translate(2.000000, 4.000000)" stroke-linecap="round" stroke-linejoin="round" stroke-width="1.86919691">
                        <g id="Group-19">
                            <path d="M79.9404166,86.5495399 C81.2590152,78.5456339 82,69.5324163 82,60 C82,26.862915 73.045695,0 62,0 C50.954305,0 42,26.862915 42,60 C42,93.137085 50.954305,120 62,120 C66.22674,120 70.1472413,116.066509 73.37696,109.353161" id="Path" stroke="#FFFFFF" transform="translate(62.000000, 60.000000) scale(-1, 1) rotate(-60.000000) translate(-62.000000, -60.000000) "></path>
                            <path d="M79.9404166,86.5495399 C81.2590152,78.5456339 82,69.5324163 82,60 C82,26.862915 73.045695,9.09494702e-13 62,9.09494702e-13 C50.954305,9.09494702e-13 42,26.862915 42,60 C42,93.137085 50.954305,120 62,120 C66.22674,120 70.1472413,116.066509 73.37696,109.353161" id="Path-Copy-2" stroke="#FFFFFF" transform="translate(62.000000, 60.000000) rotate(-180.000000) translate(-62.000000, -60.000000) "></path>
                            <path d="M79.9404166,86.5495399 C81.2590152,78.5456339 82,69.5324163 82,60 C82,26.862915 73.045695,0 62,0 C50.954305,0 42,26.862915 42,60 C42,93.137085 50.954305,120 62,120 C66.22674,120 70.1472413,116.066509 73.37696,109.353161" id="Path-Copy" stroke="#FFFFFF" stroke-dasharray="0,4" transform="translate(62.000000, 60.000000) rotate(-60.000000) translate(-62.000000, -60.000000) "></path>
                            <g id="Group-11-Copy" transform="translate(2.000000, 66.000000)" fill="#131727" stroke="#5DD9A5">
                                <path d="M18.5740741,9.57407407 C18.5740741,14.5438741 14.5456741,18.5740741 9.57407407,18.5740741 C4.60247407,18.5740741 0.574074074,14.5438741 0.574074074,9.57407407 C0.574074074,4.60427407 4.60247407,0.574074074 9.57407407,0.574074074 C14.5456741,0.574074074 18.5740741,4.60427407 18.5740741,9.57407407 Z" id="Stroke-7"></path>
                                <path d="M11.8888889,9.57407407 C11.8888889,10.8518519 10.8541667,11.8888889 9.57407407,11.8888889 C8.29398148,11.8888889 7.25925926,10.8518519 7.25925926,9.57407407 C7.25925926,8.2962963 8.29398148,7.25925926 9.57407407,7.25925926 C10.8541667,7.25925926 11.8888889,8.2962963 11.8888889,9.57407407 Z" id="Stroke-5"></path>
                            </g>
                            <g id="Group-11-Copy-2" transform="translate(40.000000, 4.000000)" fill="#131727" stroke="#5DD9A5">
                                <path d="M18.5740741,9.57407407 C18.5740741,14.5438741 14.5456741,18.5740741 9.57407407,18.5740741 C4.60247407,18.5740741 0.574074074,14.5438741 0.574074074,9.57407407 C0.574074074,4.60427407 4.60247407,0.574074074 9.57407407,0.574074074 C14.5456741,0.574074074 18.5740741,4.60427407 18.5740741,9.57407407 Z" id="Stroke-7"></path>
                                <path d="M11.8888889,9.57407407 C11.8888889,10.8518519 10.8541667,11.8888889 9.57407407,11.8888889 C8.29398148,11.8888889 7.25925926,10.8518519 7.25925926,9.57407407 C7.25925926,8.2962963 8.29398148,7.25925926 9.57407407,7.25925926 C10.8541667,7.25925926 11.8888889,8.2962963 11.8888889,9.57407407 Z" id="Stroke-5"></path>
                            </g>
                            <g id="Group-11" transform="translate(102.000000, 66.000000)" fill="#131727" stroke="#5DD9A5">
                                <path d="M18.5740741,9.57407407 C18.5740741,14.5438741 14.5456741,18.5740741 9.57407407,18.5740741 C4.60247407,18.5740741 0.574074074,14.5438741 0.574074074,9.57407407 C0.574074074,4.60427407 4.60247407,0.574074074 9.57407407,0.574074074 C14.5456741,0.574074074 18.5740741,4.60427407 18.5740741,9.57407407 Z" id="Stroke-7"></path>
                                <path d="M11.8888889,9.57407407 C11.8888889,10.8518519 10.8541667,11.8888889 9.57407407,11.8888889 C8.29398148,11.8888889 7.25925926,10.8518519 7.25925926,9.57407407 C7.25925926,8.2962963 8.29398148,7.25925926 9.57407407,7.25925926 C10.8541667,7.25925926 11.8888889,8.2962963 11.8888889,9.57407407 Z" id="Stroke-5"></path>
                            </g>
                        </g>
                    </g>
                </g>
            </g>
        </g>
    </g>
</svg>