<?xml version="1.0" encoding="UTF-8"?>
<svg width="64px" height="64px" viewBox="0 0 64 64" version="1.1" xmlns="http://www.w3.org/2000/svg" xmlns:xlink="http://www.w3.org/1999/xlink">
    <title>capabilites-icon</title>
    <g id="Page-1" stroke="none" stroke-width="1" fill="none" fill-rule="evenodd">
        <g id="Citrusbugminds_home1" transform="translate(-432.000000, -2152.000000)">
            <g id="capabilites-icon" transform="translate(433.000000, 2153.000000)">
                <g id="Group" stroke-linecap="round" stroke-linejoin="round" stroke-width="2.20384435">
                    <g id="login-keys">
                        <path d="M32.8740121,24.9467835 C32.871877,16.5486209 26.4378933,9.55152411 18.0693821,8.8464281 C9.7008709,8.14133208 2.18681231,13.9632247 0.779494862,22.2426327 C-0.627822584,30.5220407 4.54061886,38.4996797 12.672105,40.5992207 L12.672105,57.1270738 C12.672105,59.3585148 14.4810454,61.1674551 16.7124863,61.1674551 C18.9439273,61.1674551 20.7528677,59.3585148 20.7528677,57.1270738 L20.7528677,40.5992207 C27.8899601,38.7564316 32.875885,32.3179406 32.8740121,24.9467835 Z" id="Shape" stroke="#FFFFFF"></path>
                        <path d="M35.0638983,40.9547742 C37.1744846,40.6634066 39.2061624,39.9556612 41.040969,38.8726311 L54.2584031,52.0873715 C55.8437634,53.6185638 58.363773,53.5966656 59.9222847,52.0381539 C61.4807963,50.4796423 61.5026945,47.9596327 59.9715023,46.3742724 L46.7459874,33.1595319 C50.4774064,26.8392817 49.4814282,18.7982205 44.3207571,13.5793582 C39.160086,8.3604959 31.1306975,7.27442136 24.7690067,10.9347411" id="Shape" stroke="#FFFFFF"></path>
                        <circle id="Oval" stroke="#5DD9A5" cx="16.7124863" cy="22.9265928" r="4.04038131"></circle>
                        <path d="M16.7124863,18.8862115 L16.7124863,6.61153306 C16.7124863,3.26437158 19.4258968,0.550961088 22.7730583,0.550961088 C26.1202198,0.550961088 28.8336303,3.26437158 28.8336303,6.61153306 L28.8336303,9.27549114" id="Shape" stroke="#FFFFFF"></path>
                    </g>
                </g>
                <rect id="Rectangle-Copy-6" x="0" y="0" width="62" height="62"></rect>
            </g>
        </g>
    </g>
</svg>