<?xml version="1.0" encoding="UTF-8"?>
<svg width="62px" height="63px" viewBox="0 0 62 63" version="1.1" xmlns="http://www.w3.org/2000/svg" xmlns:xlink="http://www.w3.org/1999/xlink">
    <title>Group 49</title>
    <g id="Page-1" stroke="none" stroke-width="1" fill="none" fill-rule="evenodd">
        <g id="Citrusbugminds_home1" transform="translate(-1183.000000, -1807.000000)">
            <g id="Group-49" transform="translate(1183.000000, 1808.000000)">
                <rect id="Rectangle" x="0" y="0" width="62" height="62"></rect>
                <g id="Group" transform="translate(3.000000, 0.000000)" stroke-linecap="round" stroke-linejoin="round" stroke-width="2.20384435">
                    <g id="manufacturing-icon">
                        <path d="M36.3707914,34.3313925 L49.6097741,27.8199922 C50.2359937,27.5124033 50.9794173,27.5456431 51.5746993,27.9078474 C52.1699813,28.2700518 52.5323166,28.909606 52.5323166,29.5982379 L52.5323166,56.1950688 C52.5323166,58.3905188 50.7233763,60.1702827 48.4919353,60.1702827 L4.04774084,60.1702827 C1.81629986,60.1702827 0.0073595288,58.3905188 0.0073595288,56.1950688 L0.0073595288,34.3313925 L5.72584588,8.07642998 C5.92520663,7.16018964 6.74788484,6.50489543 7.70024555,6.50489543 L12.5163801,6.50489543 C13.4687408,6.50489543 14.291419,7.16018964 14.4907797,8.07642998 L20.2092661,34.3313925 L33.4482489,27.8199922 C34.0744685,27.5124033 34.817892,27.5456431 35.413174,27.9078474 C36.0084561,28.2700518 36.3707677,28.909606 36.3707914,29.5982379 L36.3707914,34.3313925" id="Shape" stroke="#FFFFFF"></path>
                        <path d="M20.222734,0.857441586 C23.0028529,0.8109841 25.7586133,1.37406807 28.2900287,2.50583027 C48.3006906,10.9094324 56.5726979,0.542074619 56.5726979,0.542074619" id="Shape" stroke="#FFFFFF"></path>
                        <line x1="37.8400209" y1="44.2694272" x2="44.451554" y2="44.2694272" id="Shape" stroke="#5DD9A5"></line>
                        <line x1="37.8400209" y1="52.219855" x2="44.451554" y2="52.219855" id="Shape" stroke="#5DD9A5"></line>
                        <line x1="23.1477252" y1="44.2694272" x2="29.7592583" y2="44.2694272" id="Shape" stroke="#5DD9A5"></line>
                        <line x1="23.1477252" y1="52.219855" x2="29.7592583" y2="52.219855" id="Shape" stroke="#5DD9A5"></line>
                        <line x1="8.45542955" y1="44.2694272" x2="15.0669626" y2="44.2694272" id="Shape" stroke="#5DD9A5"></line>
                        <line x1="8.45542955" y1="52.219855" x2="15.0669626" y2="52.219855" id="Shape" stroke="#5DD9A5"></line>
                    </g>
                </g>
            </g>
        </g>
    </g>
</svg>