<?xml version="1.0" encoding="UTF-8"?>
<svg width="51px" height="50px" viewBox="0 0 51 50" version="1.1" xmlns="http://www.w3.org/2000/svg" xmlns:xlink="http://www.w3.org/1999/xlink">
    <title>performance-increase</title>
    <g id="Page-1" stroke="none" stroke-width="1" fill="none" fill-rule="evenodd" stroke-linecap="round" stroke-linejoin="round">
        <g id="Citrusbugminds_research" transform="translate(-1118.000000, -1159.000000)" stroke="#131727" stroke-width="2">
            <g id="Group-10" transform="translate(982.000000, 720.000000)">
                <g id="Group-Copy-2" transform="translate(0.000000, 338.000000)">
                    <g id="performance-increase" transform="translate(137.000000, 102.000000)">
                        <line x1="0.59375" y1="46.43" x2="48.40625" y2="46.43" id="Shape"></line>
                        <path d="M11.75,34.19 L5.375,34.19 C4.49479618,34.19 3.78125,34.8750043 3.78125,35.72 L3.78125,46.43 L13.34375,46.43 L13.34375,35.72 C13.34375,34.8750043 12.6302038,34.19 11.75,34.19 Z" id="Shape"></path>
                        <path d="M27.6875,25.01 L21.3125,25.01 C20.4322962,25.01 19.71875,25.6950043 19.71875,26.54 L19.71875,46.43 L29.28125,46.43 L29.28125,26.54 C29.28125,25.6950043 28.5677038,25.01 27.6875,25.01 Z" id="Shape"></path>
                        <path d="M43.625,18.89 L37.25,18.89 C36.3697962,18.89 35.65625,19.5750043 35.65625,20.42 L35.65625,46.43 L45.21875,46.43 L45.21875,20.42 C45.21875,19.5750043 44.5052038,18.89 43.625,18.89 Z" id="Shape"></path>
                        <line x1="7.88675" y1="17.85164" x2="42.03125" y2="2.96576" id="Shape"></line>
                        <polyline id="Shape" points="39.494 9.45704 42.03125 2.96576 35.2695 0.53"></polyline>
                    </g>
                </g>
            </g>
        </g>
    </g>
</svg>