<?xml version="1.0" encoding="UTF-8"?>
<svg width="51px" height="51px" viewBox="0 0 51 51" version="1.1" xmlns="http://www.w3.org/2000/svg" xmlns:xlink="http://www.w3.org/1999/xlink">
    <title>cursor-double-click-2</title>
    <g id="Page-1" stroke="none" stroke-width="1" fill="none" fill-rule="evenodd" stroke-linecap="round" stroke-linejoin="round">
        <g id="Citrusbugminds_research" transform="translate(-1528.000000, -1159.000000)" stroke="#131727" stroke-width="2">
            <g id="Group-10" transform="translate(982.000000, 720.000000)">
                <g id="Group-Copy" transform="translate(356.000000, 346.000000)">
                    <g id="cursor-double-click-2" transform="translate(191.000000, 94.000000)">
                        <path d="M21.442125,23.4205 L32.526125,47.630625 C32.8025033,48.1461209 33.361669,48.4449466 33.9438271,48.388264 C34.5259853,48.3315814 35.0170039,47.9305032 35.18875,47.371375 L38.433625,38.42725 L47.37775,35.1845 C47.9365915,35.0118068 48.337156,34.520531 48.3937943,33.9383636 C48.4504326,33.3561961 48.1520746,32.7969231 47.637,32.51975 L23.4375,21.43575 C22.8688756,21.1967 22.2121883,21.3246156 21.7748612,21.759614 C21.3375341,22.1946124 21.2061143,22.8506074 21.442125,23.4205 Z" id="Shape"></path>
                        <path d="M45.161375,24.5 C45.199625,23.9758333 45.21875,23.4445833 45.21875,22.90625 C45.21875,10.5833965 35.2291035,0.59375 22.90625,0.59375 C10.5833965,0.59375 0.59375,10.5833965 0.59375,22.90625 C0.59375,35.2291035 10.5833965,45.21875 22.90625,45.21875 C23.443875,45.21875 23.96875,45.199625 24.5,45.1635" id="Shape"></path>
                        <path d="M35.254625,19.712375 C33.6985864,13.6946641 28.0300363,9.67593511 21.8364988,10.1995697 C15.6429613,10.7232044 10.7295794,15.6365863 10.2059447,21.8301238 C9.68231011,28.0236613 13.7010391,33.6922114 19.71875,35.24825" id="Shape"></path>
                    </g>
                </g>
            </g>
        </g>
    </g>
</svg>