<?xml version="1.0" encoding="UTF-8"?>
<svg width="62px" height="62px" viewBox="0 0 62 62" version="1.1" xmlns="http://www.w3.org/2000/svg" xmlns:xlink="http://www.w3.org/1999/xlink">
    <title>Group 50</title>
    <g id="Page-1" stroke="none" stroke-width="1" fill="none" fill-rule="evenodd">
        <g id="Citrusbugminds_home1" transform="translate(-939.000000, -1808.000000)">
            <g id="Group-50" transform="translate(939.000000, 1808.000000)">
                <rect id="Rectangle-Copy-5" x="0" y="0" width="62" height="62"></rect>
                <g id="Group" transform="translate(2.000000, 2.000000)" stroke-linecap="round" stroke-linejoin="round" stroke-width="2.20384435">
                    <g id="retail-icon">
                        <path d="M12.1285035,48.5764026 L38.8515855,48.5764026 C40.8222893,48.5764026 42.505637,47.1550294 42.8354015,45.2121118 L49.9383918,3.46150486 C50.2693256,1.51965789 51.9523635,0.0999075177 53.9222078,0.0999075177 L56.5726979,0.0999075177" id="Shape" stroke="#FFFFFF"></path>
                        <path d="M17.1789801,54.6369746 C17.7368404,54.6369746 18.1890754,55.0892097 18.1890754,55.6470699 C18.1890754,56.2049302 17.7368404,56.6571652 17.1789801,56.6571652 C16.6211199,56.6571652 16.1688848,56.2049302 16.1688848,55.6470699 C16.1688848,55.0892097 16.6211199,54.6369746 17.1789801,54.6369746" id="Shape" stroke="#FFFFFF"></path>
                        <path d="M37.3808867,54.6369746 C37.9387469,54.6369746 38.390982,55.0892097 38.390982,55.6470699 C38.390982,56.2049302 37.9387469,56.6571652 37.3808867,56.6571652 C36.8230264,56.6571652 36.3707914,56.2049302 36.3707914,55.6470699 C36.3707914,55.0892097 36.8230264,54.6369746 37.3808867,54.6369746" id="Shape" stroke="#FFFFFF"></path>
                        <path d="M44.3249554,36.4552587 L11.8106601,36.4552587 C8.10339715,36.4548519 4.87194953,33.9318797 3.97232039,30.3354278 L0.0666184547,14.71262 C-0.0844012445,14.1088882 0.0512668471,13.4692469 0.434361927,12.978801 C0.817457006,12.4883551 1.40521675,12.2018498 2.02755019,12.2021961 L48.4488379,12.2021961" id="Shape" stroke="#FFFFFF"></path>
                        <line x1="12.1285035" y1="20.2937334" x2="12.1285035" y2="26.3543054" id="Shape" stroke="#5DD9A5"></line>
                        <line x1="24.2496474" y1="20.2937334" x2="24.2496474" y2="26.3543054" id="Shape" stroke="#5DD9A5"></line>
                        <line x1="36.3707914" y1="20.2937334" x2="36.3707914" y2="26.3543054" id="Shape" stroke="#5DD9A5"></line>
                    </g>
                </g>
            </g>
        </g>
    </g>
</svg>