<?xml version="1.0" encoding="UTF-8"?>
<svg width="197px" height="123px" viewBox="0 0 197 123" version="1.1" xmlns="http://www.w3.org/2000/svg" xmlns:xlink="http://www.w3.org/1999/xlink">
    <title>Group 16</title>
    <g id="Page-1" stroke="none" stroke-width="1" fill="none" fill-rule="evenodd">
        <g id="assets_desktop" transform="translate(-1568.000000, -9749.000000)" stroke-width="2">
            <g id="Group-16" transform="translate(1570.000000, 9751.000000)">
                <g id="Group-13" transform="translate(34.000000, 10.000000)">
                    <path d="M7.18962301,59.2611023 C5.38280676,61.139359 4.88300458,65.1008113 4.98965693,67.1438644 C5.24478607,72.0602909 8.93997626,76.0555477 13.8104335,76.0555477 L32.1755497,76.0555477 M10.84508,76.0597732 C9.04244617,79.3620399 9.05917595,81.7748285 9.17210196,83.7375961 C9.47532923,88.8420596 13.2771718,93 18.3400215,93 L34.6369186,93 M74,52.815027 C63.1967445,31.3344476 49.0475329,25.2792356 53.9556322,4.39234583 C54.3634206,2.66620898 51.8414062,-0.2473072 49.536879,0.016789626 C43.794382,0.673862528 40.0176341,8.4467603 38.4492172,12.6723095 C35.6595264,20.1916743 38.0895269,39.120022 41.0632454,42.251154 C35.4294919,41.8433885 21.9097383,42.2046729 7.63296219,42.9758357 C3.71401119,43.1871131 0,45.8175175 0,51.2304461 C0,55.8531969 3.57808173,59.1533508 7.18962301,59.1533508 L30.0843271,59.1533508" id="Stroke-1" stroke="#131727" stroke-linecap="round" stroke-linejoin="round"></path>
                    <line x1="85" y1="46" x2="72" y2="46" id="Stroke-3" stroke="#131727" stroke-linecap="round" stroke-linejoin="round"></line>
                    <path d="M89.1608938,106 L106.497258,106 C108.538176,106 110.267027,104.481067 110.608221,102.413867 C113.932775,82.3242667 114.072165,56.2976 113.982706,46.2304 C113.961901,43.888 112.106142,42 109.823892,42 L89.1608938,42 C86.8640804,42 85,43.9114667 85,46.2666667 L85,101.733333 C85,104.088533 86.8640804,106 89.1608938,106 Z" id="Stroke-5" stroke="#131727" stroke-linecap="round" stroke-linejoin="round"></path>
                    <path d="M18.5909913,93 C18.2248075,94.3535238 17.8795484,95.9790476 18.0406693,98.2651429 C18.4340554,103.797968 22.2256275,106.492063 28.5030647,107.84127 C35.6928229,109.386921 42.1062713,110 55.7052928,110 C66.8665763,110 72.4451255,103.888635 76.6300837,101.369397 L85,101.369397" id="Stroke-7" stroke="#131727" stroke-linecap="round" stroke-linejoin="round"></path>
                    <circle id="Oval" stroke="#5DD9A5" fill="#FFFFFF" cx="98" cy="95" r="4"></circle>
                    <line x1="40" y1="42" x2="47" y2="42" id="Stroke-9" stroke="#131727" stroke-linecap="round" stroke-linejoin="round"></line>
                </g>
                <g id="Group-14" stroke="#5DD9A5" stroke-linecap="round">
                    <g id="Group-15" transform="translate(179.393398, 94.167893) rotate(-45.000000) translate(-179.393398, -94.167893) translate(171.393398, 86.167893)">
                        <line x1="0.52804384" y1="8.31021375" x2="15.1530438" y2="8.31021375" id="Line"></line>
                        <line x1="7.84054384" y1="15.8102138" x2="7.84054384" y2="0.810213755" id="Line"></line>
                    </g>
                    <g id="Group-15" transform="translate(45.857864, 34.167893) rotate(-45.000000) translate(-45.857864, -34.167893) translate(40.357864, 28.667893)">
                        <line x1="0.490670106" y1="5.83534002" x2="10.2406701" y2="5.83534002" id="Line"></line>
                        <line x1="5.36567011" y1="10.1282332" x2="5.36567011" y2="0.128233239" id="Line"></line>
                    </g>
                    <g id="Group-15" transform="translate(15.150758, 14.975505) rotate(-45.000000) translate(-15.150758, -14.975505) translate(4.650758, 4.475505)">
                        <line x1="0.2625" y1="11" x2="20.7375" y2="11" id="Line"></line>
                        <line x1="10" y1="21" x2="10" y2="0" id="Line"></line>
                    </g>
                    <line x1="122.4875" y1="31.5" x2="160.5125" y2="31.5" id="Line"></line>
                    <line x1="165.3625" y1="39.5" x2="193.6375" y2="39.5" id="Line"></line>
                    <line x1="169.15" y1="31.5" x2="180.85" y2="31.5" id="Line"></line>
                </g>
                <g id="Group-14" transform="translate(2.000000, 104.000000)" stroke="#5DD9A5" stroke-linecap="round">
                    <line x1="0.25" y1="0.5" x2="19.75" y2="0.5" id="Line"></line>
                    <line x1="14.25" y1="6.5" x2="33.75" y2="6.5" id="Line"></line>
                </g>
            </g>
        </g>
    </g>
</svg>