<?xml version="1.0" encoding="UTF-8"?>
<svg width="125px" height="125px" viewBox="0 0 125 125" version="1.1" xmlns="http://www.w3.org/2000/svg" xmlns:xlink="http://www.w3.org/1999/xlink">
    <title>value03-icon</title>
    <g id="Page-1" stroke="none" stroke-width="1" fill="none" fill-rule="evenodd">
        <g id="Citrusbugminds_home1" transform="translate(-1363.000000, -1081.000000)">
            <g id="Group-34" transform="translate(1257.000000, 1081.000000)">
                <g id="value03-icon" transform="translate(106.000000, 0.000000)">
                    <rect id="Rectangle" x="0" y="0" width="124" height="124"></rect>
                    <g id="Group-105" transform="translate(0.000000, 1.000000)" stroke-linecap="round" stroke-linejoin="round" stroke-width="1.86919691">
                        <path d="M15.2651081,12.4613128 L10.9036487,12.4613128 C9.69770513,12.4613128 8.72291893,11.5308681 8.72291893,10.3844273 L8.72291893,2.07688546 C8.72291893,0.930444686 9.69770513,0 10.9036487,0 L15.2651081,0 C16.4710517,0 17.4458379,0.930444686 17.4458379,2.07688546 L17.4458379,10.3844273 C17.4458379,11.5308681 16.4710517,12.4613128 15.2651081,12.4613128 Z" id="Stroke-1" stroke="#131727"></path>
                        <line x1="1.24613128" y1="12.4613128" x2="1.24613128" y2="0" id="Stroke-3" stroke="#131727"></line>
                        <line x1="26.1687568" y1="12.4613128" x2="26.1687568" y2="0" id="Stroke-5" stroke="#131727"></line>
                        <line x1="34.8916757" y1="12.4613128" x2="34.8916757" y2="0" id="Stroke-7" stroke="#131727"></line>
                        <line x1="43.6145947" y1="8.72291893" x2="43.6145947" y2="0" id="Stroke-9" stroke="#131727"></line>
                        <path d="M68.0901706,11.2151815 C68.3518582,10.8833714 68.5372202,10.4972651 68.5372202,10.0548516 L68.5372202,2.01097032 C68.5372202,0.900914704 67.562434,0 66.3564905,0 L61.995031,0 C60.7890875,0 59.8143013,0.900914704 59.8143013,2.01097032 L59.8143013,8.85229136 C62.6841416,9.3912314 65.4536684,10.1855647 68.0901706,11.2151815 Z" id="Stroke-11" stroke="#131727"></path>
                        <line x1="52.3375136" y1="8.72291893" x2="52.3375136" y2="0" id="Stroke-13" stroke="#131727"></line>
                        <path d="M91.279116,12.4613128 L86.9176565,12.4613128 C85.711713,12.4613128 84.7369268,11.5308681 84.7369268,10.3844273 L84.7369268,2.07688546 C84.7369268,0.930444686 85.711713,0 86.9176565,0 L91.279116,0 C92.4850595,0 93.4598457,0.930444686 93.4598457,2.07688546 L93.4598457,10.3844273 C93.4598457,11.5308681 92.4850595,12.4613128 91.279116,12.4613128 Z" id="Stroke-15" stroke="#131727"></path>
                        <line x1="77.2601391" y1="12.4613128" x2="77.2601391" y2="0" id="Stroke-17" stroke="#131727"></line>
                        <path d="M117.447873,12.4613128 L113.086413,12.4613128 C111.88047,12.4613128 110.905684,11.5308681 110.905684,10.3844273 L110.905684,2.07688546 C110.905684,0.930444686 111.88047,0 113.086413,0 L117.447873,0 C118.653816,0 119.628603,0.930444686 119.628603,2.07688546 L119.628603,10.3844273 C119.628603,11.5308681 118.653816,12.4613128 117.447873,12.4613128 Z" id="Stroke-19" stroke="#131727"></path>
                        <line x1="102.182765" y1="12.4613128" x2="102.182765" y2="0" id="Stroke-21" stroke="#131727"></line>
                        <path d="M15.2651081,117.13634 L10.9036487,117.13634 C9.69770513,117.13634 8.72291893,116.205895 8.72291893,115.059455 L8.72291893,106.751913 C8.72291893,105.605472 9.69770513,104.675027 10.9036487,104.675027 L15.2651081,104.675027 C16.4710517,104.675027 17.4458379,105.605472 17.4458379,106.751913 L17.4458379,115.059455 C17.4458379,116.205895 16.4710517,117.13634 15.2651081,117.13634 Z" id="Stroke-23" stroke="#131727"></path>
                        <line x1="1.24613128" y1="117.13634" x2="1.24613128" y2="104.675027" id="Stroke-25" stroke="#131727"></line>
                        <line x1="26.1687568" y1="117.13634" x2="26.1687568" y2="104.675027" id="Stroke-27" stroke="#131727"></line>
                        <line x1="34.8916757" y1="117.13634" x2="34.8916757" y2="104.675027" id="Stroke-29" stroke="#131727"></line>
                        <line x1="43.6145947" y1="117.13634" x2="43.6145947" y2="104.675027" id="Stroke-31" stroke="#131727"></line>
                        <path d="M66.3564905,117.13634 L61.995031,117.13634 C60.7890875,117.13634 59.8143013,116.205895 59.8143013,115.059455 L59.8143013,106.751913 C59.8143013,105.605472 60.7890875,104.675027 61.995031,104.675027 L66.3564905,104.675027 C67.562434,104.675027 68.5372202,105.605472 68.5372202,106.751913 L68.5372202,115.059455 C68.5372202,116.205895 67.562434,117.13634 66.3564905,117.13634 Z" id="Stroke-33" stroke="#131727"></path>
                        <line x1="52.3375136" y1="117.13634" x2="52.3375136" y2="104.675027" id="Stroke-35" stroke="#131727"></line>
                        <path d="M91.279116,117.13634 L86.9176565,117.13634 C85.711713,117.13634 84.7369268,116.205895 84.7369268,115.059455 L84.7369268,106.751913 C84.7369268,105.605472 85.711713,104.675027 86.9176565,104.675027 L91.279116,104.675027 C92.4850595,104.675027 93.4598457,105.605472 93.4598457,106.751913 L93.4598457,115.059455 C93.4598457,116.205895 92.4850595,117.13634 91.279116,117.13634 Z" id="Stroke-37" stroke="#131727"></path>
                        <line x1="77.2601391" y1="117.13634" x2="77.2601391" y2="104.675027" id="Stroke-39" stroke="#131727"></line>
                        <line x1="102.182765" y1="118.382471" x2="102.182765" y2="113.397946" id="Stroke-41" stroke="#131727"></line>
                        <line x1="1.24613128" y1="33.6455445" x2="1.24613128" y2="21.1842317" id="Stroke-43" stroke="#131727"></line>
                        <line x1="9.96905021" y1="33.6455445" x2="9.96905021" y2="21.1842317" id="Stroke-45" stroke="#131727"></line>
                        <line x1="17.4458379" y1="24.9226255" x2="17.4458379" y2="21.1842317" id="Stroke-47" stroke="#131727"></line>
                        <line x1="85.9830581" y1="24.9226255" x2="85.9830581" y2="21.1842317" id="Stroke-49" stroke="#131727"></line>
                        <path d="M100.002035,33.6455445 L95.6405755,33.6455445 C94.4346319,33.6455445 93.4598457,32.7150998 93.4598457,31.568659 L93.4598457,23.2611172 C93.4598457,22.1146764 94.4346319,21.1842317 95.6405755,21.1842317 L100.002035,21.1842317 C101.207978,21.1842317 102.182765,22.1146764 102.182765,23.2611172 L102.182765,31.568659 C102.182765,32.7150998 101.207978,33.6455445 100.002035,33.6455445 Z" id="Stroke-51" stroke="#131727"></path>
                        <line x1="110.905684" y1="33.6455445" x2="110.905684" y2="21.1842317" id="Stroke-53" stroke="#131727"></line>
                        <line x1="119.628603" y1="33.6455445" x2="119.628603" y2="21.1842317" id="Stroke-55" stroke="#131727"></line>
                        <path d="M7.78832048,54.8297762 L3.42686101,54.8297762 C2.22091747,54.8297762 1.24613128,53.8993315 1.24613128,52.7528907 L1.24613128,44.4453489 C1.24613128,43.2989081 2.22091747,42.3684634 3.42686101,42.3684634 L7.78832048,42.3684634 C8.99426402,42.3684634 9.96905021,43.2989081 9.96905021,44.4453489 L9.96905021,52.7528907 C9.96905021,53.8993315 8.99426402,54.8297762 7.78832048,54.8297762 Z" id="Stroke-57" stroke="#131727"></path>
                        <path d="M117.447873,54.8297762 L113.086413,54.8297762 C111.88047,54.8297762 110.905684,53.8993315 110.905684,52.7528907 L110.905684,44.4453489 C110.905684,43.2989081 111.88047,42.3684634 113.086413,42.3684634 L117.447873,42.3684634 C118.653816,42.3684634 119.628603,43.2989081 119.628603,44.4453489 L119.628603,52.7528907 C119.628603,53.8993315 118.653816,54.8297762 117.447873,54.8297762 Z" id="Stroke-59" stroke="#131727"></path>
                        <line x1="102.182765" y1="54.8297762" x2="102.182765" y2="42.3684634" id="Stroke-61" stroke="#131727"></line>
                        <path d="M10.5627463,63.5526951 C9.5373014,63.6380751 8.72291893,64.5085344 8.72291893,65.6018147 L8.72291893,73.9315692 C8.72291893,75.0831578 9.61296529,76.0140079 10.7140741,76.0140079 L14.6963844,76.0140079 C15.3076691,76.0140079 15.833334,75.7099718 16.1997066,75.2580826 C13.7744796,71.7221018 11.8410679,67.7946226 10.5627463,63.5526951 Z" id="Stroke-63" stroke="#131727"></path>
                        <line x1="1.24613128" y1="76.0140079" x2="1.24613128" y2="63.5526951" id="Stroke-65" stroke="#131727"></line>
                        <path d="M91.6200183,63.5526951 C90.3416967,67.7946226 88.4082851,71.7221018 85.9830581,75.2580826 C86.3494306,75.7099718 86.8750956,76.0140079 87.4863802,76.0140079 L91.4686906,76.0140079 C92.5697994,76.0140079 93.4598457,75.0831578 93.4598457,73.9315692 L93.4598457,65.6018147 C93.4598457,64.5085344 92.6454633,63.6380751 91.6200183,63.5526951 Z" id="Stroke-67" stroke="#131727"></path>
                        <path d="M117.447873,76.0140079 L113.086413,76.0140079 C111.88047,76.0140079 110.905684,75.0835632 110.905684,73.9371224 L110.905684,65.6295806 C110.905684,64.4831398 111.88047,63.5526951 113.086413,63.5526951 L117.447873,63.5526951 C118.653816,63.5526951 119.628603,64.4831398 119.628603,65.6295806 L119.628603,73.9371224 C119.628603,75.0835632 118.653816,76.0140079 117.447873,76.0140079 Z" id="Stroke-69" stroke="#131727"></path>
                        <line x1="102.182765" y1="76.0140079" x2="102.182765" y2="63.5526951" id="Stroke-71" stroke="#131727"></line>
                        <path d="M23.9880271,97.1982396 L19.6265676,97.1982396 C18.4206241,97.1982396 17.4458379,96.2677949 17.4458379,95.1213541 L17.4458379,86.8138123 C17.4458379,85.6673715 18.4206241,84.7369268 19.6265676,84.7369268 L23.9880271,84.7369268 C25.1939706,84.7369268 26.1687568,85.6673715 26.1687568,86.8138123 L26.1687568,95.1213541 C26.1687568,96.2677949 25.1939706,97.1982396 23.9880271,97.1982396 Z" id="Stroke-73" stroke="#131727"></path>
                        <line x1="1.24613128" y1="97.1982396" x2="1.24613128" y2="84.7369268" id="Stroke-75" stroke="#131727"></line>
                        <line x1="9.96905021" y1="97.1982396" x2="9.96905021" y2="84.7369268" id="Stroke-77" stroke="#131727"></line>
                        <line x1="34.8916757" y1="97.1982396" x2="34.8916757" y2="89.7214519" id="Stroke-79" stroke="#131727"></line>
                        <line x1="68.5372202" y1="97.1982396" x2="68.5372202" y2="89.7214519" id="Stroke-81" stroke="#131727"></line>
                        <path d="M43.6145947,95.1222191 C43.6145947,96.2681824 44.5893809,97.1982396 45.7953244,97.1982396 L50.1567839,97.1982396 C51.3627274,97.1982396 52.3375136,96.2681824 52.3375136,95.1222191 L52.3375136,93.0461986 C49.3499139,93.0461986 46.4342782,92.7576318 43.6145947,92.2137144 L43.6145947,95.1222191 Z" id="Stroke-83" stroke="#131727"></path>
                        <line x1="59.8143013" y1="97.1982396" x2="59.8143013" y2="92.2137144" id="Stroke-85" stroke="#131727"></line>
                        <line x1="77.2601391" y1="97.1982396" x2="77.2601391" y2="84.7369268" id="Stroke-87" stroke="#131727"></line>
                        <path d="M117.447873,97.1982396 L113.086413,97.1982396 C111.88047,97.1982396 110.905684,96.2677949 110.905684,95.1213541 L110.905684,86.8138123 C110.905684,85.6673715 111.88047,84.7369268 113.086413,84.7369268 L117.447873,84.7369268 C118.653816,84.7369268 119.628603,85.6673715 119.628603,86.8138123 L119.628603,95.1213541 C119.628603,96.2677949 118.653816,97.1982396 117.447873,97.1982396 Z" id="Stroke-89" stroke="#131727"></path>
                        <line x1="102.182765" y1="89.7214519" x2="102.182765" y2="84.7369268" id="Stroke-91" stroke="#131727"></line>
                        <path d="M108.827487,119.62637 L87.2298247,98.0308369 C83.9059608,94.7027143 83.9059608,89.3112836 87.2298247,85.9852904 C90.5579472,82.6592972 95.9493779,82.6592972 99.2775005,85.9852904 L120.870904,107.580824 C124.199027,110.906817 124.199027,116.300377 120.870904,119.62637 C117.547041,122.952363 112.153481,122.952363 108.827487,119.62637 Z" id="Stroke-93" stroke="#131727"></path>
                        <path d="M87.2646409,86.0185096 C88.3281866,84.9570131 89.6130481,84.2828194 90.9675832,83.9242058 L84.3035166,77.2601391 C82.5678264,79.3790336 80.6272141,81.3216951 78.5062704,83.0553361 L85.1723862,89.7214519 C85.5269015,88.3669168 86.2031444,87.0800061 87.2646409,86.0185096 Z" id="Stroke-95" stroke="#131727"></path>
                        <path d="M92.2137144,51.0913823 C92.2137144,73.8011902 73.8032464,92.2137144 51.0913823,92.2137144 C28.3795183,92.2137144 9.96905021,73.8011902 9.96905021,51.0913823 C9.96905021,28.3795183 28.3795183,9.96905021 51.0913823,9.96905021 C73.8032464,9.96905021 92.2137144,28.3795183 92.2137144,51.0913823 Z" id="Stroke-97" stroke="#131727"></path>
                        <path d="M84.7369268,51.0913823 C84.7369268,69.6721343 69.6742371,84.7369268 51.0913823,84.7369268 C32.5085276,84.7369268 17.4458379,69.6721343 17.4458379,51.0913823 C17.4458379,32.5085276 32.5085276,17.4458379 51.0913823,17.4458379 C69.6742371,17.4458379 84.7369268,32.5085276 84.7369268,51.0913823 Z" id="Stroke-99" stroke="#131727"></path>
                        <path d="M72.275614,49.8452511 C70.112704,54.5085436 62.2575909,63.5526951 51.0913823,63.5526951 C39.9251738,63.5526951 32.0700607,54.5085436 29.9071506,49.8452511 C32.0700607,45.1819585 39.9251738,36.137807 51.0913823,36.137807 C62.2575909,36.137807 70.112704,45.1819585 72.275614,49.8452511 Z" id="Stroke-101" stroke="#5DD9A5"></path>
                        <path d="M53.6771047,44.1815844 C52.8899651,43.8222832 52.0155964,43.6145947 51.0913823,43.6145947 C47.65206,43.6145947 44.8607259,46.4038518 44.8607259,49.8452511 C44.8607259,53.2866503 47.65206,56.0759074 51.0913823,56.0759074 C54.5327815,56.0759074 57.3220387,53.2866503 57.3220387,49.8452511" id="Stroke-103" stroke="#5DD9A5"></path>
                    </g>
                </g>
            </g>
        </g>
    </g>
</svg>