<?xml version="1.0" encoding="UTF-8"?>
<svg width="128px" height="127px" viewBox="0 0 128 127" version="1.1" xmlns="http://www.w3.org/2000/svg" xmlns:xlink="http://www.w3.org/1999/xlink">
    <title>value02-icon</title>
    <g id="Page-1" stroke="none" stroke-width="1" fill="none" fill-rule="evenodd" stroke-linecap="round" stroke-linejoin="round">
        <g id="Citrusbugminds_home1" transform="translate(-897.000000, -1079.000000)" stroke-width="1.86919691">
            <g id="Group-35" transform="translate(791.000000, 1080.000000)">
                <g id="Group-48" transform="translate(107.000000, 0.000000)">
                    <g id="Group-45">
                        <g id="value02-icon" transform="translate(0.167290, 0.000000)">
                            <line x1="16.6889205" y1="43.2731977" x2="16.6889205" y2="43.2731977" id="Stroke-1" stroke="#131727"></line>
                            <g id="Group-42">
                                <path d="M20.6125153,35.7723468 C29.3848497,22.0154872 44.7810165,12.8907984 62.306349,12.8907984 C89.5966239,12.8907984 111.7219,35.0139255 111.7219,62.306349 C111.7219,89.5987724 89.5966239,111.7219 62.306349,111.7219 C43.3501141,111.7219 26.8882902,101.048141 18.5993687,85.3855596" id="Stroke-2" stroke="#131727" stroke-dasharray="0,4.914741668026005"></path>
                                <path d="M83.0574426,92.3688363 C78.2684312,95.6818267 72.6479495,97.8775959 66.5762822,98.5844532" id="Stroke-34" stroke="#5DD9A5"></path>
                                <line x1="16.7813061" y1="81.5590772" x2="16.7813061" y2="81.5590772" id="Stroke-4" stroke="#131727"></line>
                                <path d="M16.7748606,81.5412446 C14.2740041,75.6307151 12.8903687,69.1293474 12.8903687,62.3057044 C12.8903687,58.6639932 13.2856931,55.1146676 14.0333718,51.6964005" id="Stroke-6" stroke="#5DD9A5"></path>
                                <path d="M75.7727311,43.0089319 C75.7877706,42.9810014 75.8028101,42.9530708 75.8178496,42.9251403 C71.9870702,40.2502551 67.3334144,38.6732545 62.3059193,38.6732545" id="Stroke-26" stroke="#5DD9A5"></path>
                                <line x1="119.116185" y1="87.9343278" x2="119.116185" y2="87.9343278" id="Stroke-8" stroke="#131727"></line>
                                <path d="M115.098271,95.4143382 C104.074306,112.95471 84.553015,124.612483 62.3074232,124.612483 C27.8948635,124.612483 0.00085940088,96.7163305 0.00085940088,62.3059193 C0.00085940088,27.895508 27.8948635,-0.00064455066 62.3074232,-0.00064455066 C80.4214453,-0.00064455066 96.7307255,7.72966637 108.115639,20.0728115" id="Stroke-10" stroke="#131727" stroke-dasharray="0,4.927203271241315"></path>
                                <line x1="110.887421" y1="23.2904084" x2="110.887421" y2="23.2904084" id="Stroke-12" stroke="#131727"></line>
                                <path d="M110.887421,23.2904084 C119.474985,33.9684643 124.614202,47.5384042 124.614202,62.3072084 C124.614202,68.4347366 123.729019,74.3560087 122.078969,79.9507084" id="Stroke-14" stroke="#5DD9A5"></path>
                                <path d="M73.0492897,62.3065638 C73.0492897,68.2385784 68.2409417,73.0490748 62.3067787,73.0490748 C56.3726156,73.0490748 51.5642677,68.2385784 51.5642677,62.3065638 C51.5642677,56.3745492 56.3726156,51.5640528 62.3067787,51.5640528 C68.2409417,51.5640528 73.0492897,56.3745492 73.0492897,62.3065638 Z" id="Stroke-16" stroke="#131727"></path>
                                <path d="M83.7918007,45.1185462 C83.7918007,47.4904926 81.8667427,49.4155506 79.4947963,49.4155506 C77.1228498,49.4155506 75.1977919,47.4904926 75.1977919,45.1185462 C75.1977919,42.7465998 77.1228498,40.8215418 79.4947963,40.8215418 C81.8667427,40.8215418 83.7918007,42.7465998 83.7918007,45.1185462 Z" id="Stroke-18" stroke="#131727"></path>
                                <path d="M66.6037831,98.8311012 C66.6037831,101.203048 64.6787251,103.128106 62.3067787,103.128106 C59.9348322,103.128106 58.0097743,101.203048 58.0097743,98.8311012 C58.0097743,96.4591548 59.9348322,94.5340968 62.3067787,94.5340968 C64.6787251,94.5340968 66.6037831,96.4591548 66.6037831,98.8311012 Z" id="Stroke-20" stroke="#131727"></path>
                                <path d="M19.3367347,47.2670484 C19.3367347,49.6389948 17.4116767,51.5640528 15.0397303,51.5640528 C12.6677838,51.5640528 10.7427259,49.6389948 10.7427259,47.2670484 C10.7427259,44.895102 12.6677838,42.970044 15.0397303,42.970044 C17.4116767,42.970044 19.3367347,44.895102 19.3367347,47.2670484 Z" id="Stroke-22" stroke="#131727"></path>
                                <path d="M124.613342,83.7915858 C124.613342,86.1635323 122.688285,88.0885902 120.316338,88.0885902 C117.944392,88.0885902 116.019334,86.1635323 116.019334,83.7915858 C116.019334,81.4196394 117.944392,79.4945814 120.316338,79.4945814 C122.688285,79.4945814 124.613342,81.4196394 124.613342,83.7915858 Z" id="Stroke-24" stroke="#131727"></path>
                                <line x1="58.0392087" y1="98.584668" x2="58.0392087" y2="98.584668" id="Stroke-28" stroke="#131727"></line>
                                <path d="M49.7137627,96.6018153 C35.7463499,91.4711921 25.7815967,78.0537958 25.7815967,62.3074232 C25.7815967,42.1351361 42.1359955,25.7828858 62.3061341,25.7828858 C82.4784213,25.7828858 98.8306715,42.1351361 98.8306715,62.3074232 C98.8306715,71.0862032 95.7325314,79.1430865 90.5718291,85.4424949" id="Stroke-30" stroke="#131727" stroke-dasharray="0,4.970817903501798"></path>
                                <line x1="87.6670541" y1="88.5911249" x2="87.6670541" y2="88.5911249" id="Stroke-32" stroke="#131727"></line>
                                <line x1="62.3067787" y1="38.6730396" x2="62.3067787" y2="38.6730396" id="Stroke-36" stroke="#131727"></line>
                                <path d="M54.0926251,40.1396072 C45.0904008,43.4762311 38.6728248,52.1411405 38.6728248,62.3057044 C38.6728248,75.3600038 49.2541981,85.9392286 62.306349,85.9392286 C75.3584998,85.9392286 85.9398732,75.3600038 85.9398732,62.3057044 C85.9398732,58.7778638 85.1599669,55.4326459 83.7698859,52.4290398" id="Stroke-38" stroke="#131727" stroke-dasharray="0,4.861157948991893"></path>
                                <line x1="81.6832606" y1="48.7976414" x2="81.6832606" y2="48.7976414" id="Stroke-40" stroke="#131727"></line>
                            </g>
                        </g>
                    </g>
                </g>
            </g>
        </g>
    </g>
</svg>