<?xml version="1.0" encoding="UTF-8"?>
<svg width="124px" height="124px" viewBox="0 0 124 124" version="1.1" xmlns="http://www.w3.org/2000/svg" xmlns:xlink="http://www.w3.org/1999/xlink">
    <title>value01-icon</title>
    <g id="Page-1" stroke="none" stroke-width="1" fill="none" fill-rule="evenodd">
        <g id="Citrusbugminds_home1" transform="translate(-432.000000, -1080.000000)">
            <g id="Group-2" transform="translate(325.000000, 1080.000000)">
                <g id="value01-icon" transform="translate(107.000000, 0.000000)">
                    <rect id="Rectangle" x="0" y="0" width="124" height="124"></rect>
                    <g id="Group-39" transform="translate(5.151815, 0.000000)" stroke-linecap="round" stroke-linejoin="round" stroke-width="1.86919691">
                        <path d="M8.72291893,58.578418 C3.59293078,58.3099712 -0.0168986335,63.3559316 0.0334812672,68.9618551 C-0.200894793,72.1957998 0.618326202,80.7986798 8.25197638,85.9830581 M7.61534965,85.9830581 C4.44216863,86.7869251 2.35279912,90.9118185 2.49952451,93.8167016 C2.73428513,98.5038959 5.06819694,106.116273 14.9535753,105.917336 M48.5991198,116.061502 C37.9387372,123.383512 24.7912079,121.876487 17.8077469,114.745845 C17.0876745,114.010817 16.4214005,113.230121 15.8172018,112.412457 C14.8405519,111.083752 14.6232886,108.408946 15.5233792,105.921158 M8.23064909,59.8143013 L7.71399124,58.9327208 C4.72818952,55.0865892 1.99070397,50.3841253 0.57289872,44.425567 C-1.18734254,37.0341775 0.138345418,22.2261502 18.6919691,17.4458379 M21.1001703,27.4148881 C13.2771757,10.4311044 26.8622246,3.20252827 28.659675,2.47333876 C36.7236914,-0.802907667 43.9686423,3.09018815 48.5991198,7.00983708" id="Stroke-1" stroke="#131727"></path>
                        <path d="M105.982325,67.3688919 C107.412977,66.2230889 113.17073,60.8719011 113.391943,53.1408106 C113.487045,49.976505 112.453337,46.3563423 110.203988,43.4918347 C108.1221,40.8326681 104.992033,38.9640645 100.768302,38.66632 C99.8896502,38.6067711 98.9882569,38.621145 98.0744591,38.7053348 C90.5304584,39.4774171 88.450638,43.4918347 87.4127952,45.2865154 C87.4127952,45.2865154 83.4288848,42.7936751 77.8758057,44.3912285 C76.3603898,44.8347651 74.9090639,45.4918565 73.6479402,46.3255411 C71.7810636,47.5616943 70.2118949,49.2146897 69.2402095,51.2311388 C68.1589509,53.4693563 67.8364341,56.0299591 68.6406588,58.8041167 C68.9755802,59.9827744 69.5027713,61.1470581 70.2346365,62.2723271 C71.1215579,63.6357916 71.2435355,64.6214287 70.9995804,65.348336 C70.8651984,69.385341 60.8547706,74.3463808 69.6743668,85.9830581 M105.626471,39.8679395 C110.846645,40.1661899 111.236423,32.3081182 110.750731,29.387749 C109.301816,21.3184165 102.628646,18.9738363 98.5227074,18.7439349 C96.1921996,18.6134504 93.8147551,19.0856803 91.6903605,20.073635 C88.6455989,21.4882536 85.9334756,24.0896606 83.9805018,28.476428 C80.6765682,35.8974799 71.7239081,35.2264164 69.9607218,27.6955917 C69.3913596,25.2702354 69.8301154,19.634544 76.8257204,18.8102128 C79.0643956,18.5471725 83.1887006,16.7390289 82.0173245,11.2151815 M84.5734183,105.886769 C80.5746067,109.638905 73.7008053,109.547234 71.4843212,103.328493 C69.8349412,98.7022793 72.6434572,91.1425763 80.3668762,92.8843353 C79.6938295,90.6309213 79.2326679,88.2581211 79.2118948,85.6849228 C78.8795261,82.2205919 79.220204,78.9992971 80.092672,76.1361609 C81.1458655,72.6803576 82.9697391,69.8001662 85.3420211,67.6704022 C87.8015499,65.4574942 90.8032553,64.0568386 94.1186336,63.6688335 L94.2993591,63.6453827 C96.6571,63.3895551 99.1810253,63.658174 101.769347,64.5151962 C104.145784,65.3039977 106.167001,66.5298378 107.818458,68.0946495 C110.672675,70.7936297 112.419688,74.4242485 113.090658,78.4663231 C113.707617,82.1502393 113.391867,86.2178967 112.176644,90.2045421 C111.011276,94.0398229 107.284591,103.224031 96.6612546,106.914342 M99.1091021,77.2601391 C102.447949,90.5204711 90.1653175,86.2710447 93.6018763,97.5790478 C96.9324069,105.210879 99.0799963,110.111082 90.9199883,118.03872 C86.8701296,121.963778 80.3171754,122.787959 75.4232496,121.65165 C74.159228,121.327282 70.1530279,120.270536 66.0449576,117.728632 M66.0449576,6.92459986 C69.6572631,4.03569114 74.8586457,1.30457178 81.6954711,1.24613128 C90.3616321,1.24613128 99.3439225,5.21618924 102.182765,17.4458379" id="Stroke-3" stroke="#131727"></path>
                        <path d="M88.3116991,44.8607259 C88.3116991,44.8607259 84.722841,50.2879822 86.7864344,58.56817" id="Stroke-5" stroke="#131727"></path>
                        <path d="M100.648108,49.8452511 C101.843174,54.1768813 99.0574627,61.737742 97.1982396,63.5526951" id="Stroke-7" stroke="#131727"></path>
                        <path d="M99.3058754,27.4148881 C101.092828,30.1658686 100.232997,35.8196978 99.0516647,37.3839383" id="Stroke-9" stroke="#131727"></path>
                        <line x1="33.6455445" y1="66.0449576" x2="19.9381004" y2="66.0449576" id="Stroke-19" stroke="#5DD9A5"></line>
                        <line x1="58.56817" y1="1.24613128" x2="58.56817" y2="1.24613128" id="Stroke-33" stroke="#131727"></line>
                        <line x1="58.56817" y1="8.72291893" x2="58.56817" y2="117.13634" id="Stroke-35" stroke="#131727" stroke-dasharray="0,4.818789574952253"></line>
                        <line x1="58.56817" y1="120.874734" x2="58.56817" y2="120.874734" id="Stroke-37" stroke="#131727"></line>
                        <line x1="19.9381004" y1="66.0449576" x2="19.9381004" y2="79.7524017" id="Stroke-17" stroke="#5DD9A5"></line>
                        <line x1="21.1842317" y1="43.6145947" x2="41.1223321" y2="43.6145947" id="Stroke-21" stroke="#5DD9A5"></line>
                        <line x1="42.3684634" y1="43.6145947" x2="42.3684634" y2="58.56817" id="Stroke-13" stroke="#5DD9A5"></line>
                        <line x1="41.1223321" y1="72.275614" x2="41.1223321" y2="98.4443708" id="Stroke-15" stroke="#5DD9A5"></line>
                        <line x1="32.3994132" y1="26.1687568" x2="32.3994132" y2="42.3684634" id="Stroke-11" stroke="#5DD9A5"></line>
                        <path d="M32.3994132,26.1687568 C28.958014,26.1687568 26.1687568,23.3794996 26.1687568,19.9381004 C26.1687568,16.4967012 28.958014,13.707444 32.3994132,13.707444 C35.8408124,13.707444 38.6300696,16.4967012 38.6300696,19.9381004 C38.6300696,23.3794996 35.8408124,26.1687568 32.3994132,26.1687568 Z" id="Stroke-23" stroke="#131727"></path>
                        <path d="M41.1223321,71.0294828 C37.6809329,71.0294828 34.8916757,68.2402256 34.8916757,64.7988264 C34.8916757,61.3574272 37.6809329,58.56817 41.1223321,58.56817 C44.5637313,58.56817 47.3529885,61.3574272 47.3529885,64.7988264 C47.3529885,68.2402256 44.5637313,71.0294828 41.1223321,71.0294828 Z" id="Stroke-25" stroke="#131727"></path>
                        <path d="M41.1223321,110.905684 C37.6809329,110.905684 34.8916757,108.116426 34.8916757,104.675027 C34.8916757,101.233628 37.6809329,98.4443708 41.1223321,98.4443708 C44.5637313,98.4443708 47.3529885,101.233628 47.3529885,104.675027 C47.3529885,108.116426 44.5637313,110.905684 41.1223321,110.905684 Z" id="Stroke-27" stroke="#131727"></path>
                        <path d="M19.9381004,92.2137144 C16.4967012,92.2137144 13.707444,89.4244573 13.707444,85.9830581 C13.707444,82.5416589 16.4967012,79.7524017 19.9381004,79.7524017 C23.3794996,79.7524017 26.1687568,82.5416589 26.1687568,85.9830581 C26.1687568,89.4244573 23.3794996,92.2137144 19.9381004,92.2137144 Z" id="Stroke-29" stroke="#131727"></path>
                        <path d="M14.9535753,48.5991198 C11.5121761,48.5991198 8.72291893,45.8098626 8.72291893,42.3684634 C8.72291893,38.9270642 11.5121761,36.137807 14.9535753,36.137807 C18.3949745,36.137807 21.1842317,38.9270642 21.1842317,42.3684634 C21.1842317,45.8098626 18.3949745,48.5991198 14.9535753,48.5991198 Z" id="Stroke-31" stroke="#131727"></path>
                    </g>
                </g>
            </g>
        </g>
    </g>
</svg>